<svg height="512pt" viewBox="0 -64 512.0068 512" width="512pt" xmlns="http://www.w3.org/2000/svg"><path d="m510.210938 324.761719-42.667969-64c-1.980469-2.988281-5.308594-4.757813-8.871094-4.757813h-405.335937c-3.5625 0-6.890626 1.769532-8.875 4.757813l-42.664063 64c-2.199219 3.261719-2.390625 7.488281-.511719 10.941406 1.832032 3.457031 5.4375 5.632813 9.386719 5.632813h490.664063c3.949218 0 7.554687-2.175782 9.386718-5.632813 1.878906-3.476563 1.6875-7.679687-.511718-10.941406zm0 0" fill="#b0bec5"/><path d="m501.335938 320.003906h-192c-2.835938 0-5.546876 1.128906-7.550782 3.113282l-7.53125 7.554687h-76.5l-7.554687-7.554687c-1.984375-1.984376-4.691407-3.113282-7.527344-3.113282h-192c-5.890625 0-10.66796875 4.777344-10.66796875 10.667969v10.664063c0 23.53125 19.13671875 42.667968 42.66796875 42.667968h426.664063c23.53125 0 42.667968-19.136718 42.667968-42.667968v-10.664063c0-5.890625-4.777344-10.667969-10.667968-10.667969zm0 0" fill="#607d8b"/><path d="m426.671875 10.671875h-341.335937c-17.664063 0-32 14.335937-32 32v224h405.335937v-224c0-17.664063-14.335937-32-32-32zm0 0" fill="#eceff1"/><path d="m458.671875 277.335938h-405.335937c-5.886719 0-10.664063-4.777344-10.664063-10.664063v-224c0-23.53125 19.132813-42.66796875 42.664063-42.66796875h341.335937c23.527344 0 42.664063 19.13671875 42.664063 42.66796875v224c0 5.886719-4.777344 10.664063-10.664063 10.664063zm-394.667969-21.332032h384v-213.332031c0-11.777344-9.578125-21.335937-21.332031-21.335937h-341.335937c-11.753907 0-21.332032 9.558593-21.332032 21.335937zm0 0"/><path d="m501.335938 341.335938c-3.457032 0-6.824219-1.664063-8.894532-4.757813l-42.667968-64c-3.261719-4.882813-1.941407-11.519531 2.964843-14.78125 4.90625-3.265625 11.542969-1.941406 14.785157 2.964844l42.667968 64c3.261719 4.882812 1.941406 11.519531-2.964844 14.78125-1.792968 1.21875-3.84375 1.792969-5.890624 1.792969zm0 0"/><path d="m10.671875 341.335938c-2.027344 0-4.078125-.574219-5.910156-1.792969-4.90625-3.261719-6.230469-9.898438-2.964844-14.78125l42.664063-64c3.242187-4.886719 9.855468-6.230469 14.785156-2.964844 4.90625 3.261719 6.230468 9.898437 2.964844 14.78125l-42.667969 64c-2.046875 3.09375-5.4375 4.757813-8.871094 4.757813zm0 0"/><path d="m469.335938 384.003906h-426.664063c-23.53125 0-42.66796875-19.136718-42.66796875-42.667968v-10.664063c0-5.890625 4.77734375-10.667969 10.66796875-10.667969h192c2.835937 0 5.542969 1.128906 7.550781 3.113282l7.550782 7.554687h76.503906l7.550781-7.554687c1.960937-1.984376 4.671875-3.113282 7.507813-3.113282h192c5.890624 0 10.667968 4.777344 10.667968 10.667969v10.664063c0 23.53125-19.136718 42.667968-42.667968 42.667968zm-448-42.667968c0 11.777343 9.578124 21.335937 21.335937 21.335937h426.664063c11.753906 0 21.335937-9.558594 21.335937-21.335937h-176.917969l-7.554687 7.554687c-1.984375 1.980469-4.691407 3.113281-7.527344 3.113281h-85.335937c-2.835938 0-5.546876-1.132812-7.550782-3.113281l-7.53125-7.554687zm0 0"/></svg>